<?xml version="1.0" encoding="UTF-8"?>
<svg xmlns="http://www.w3.org/2000/svg" version="1.1" viewBox="0 0 200 40">
  <defs>
    <style>
      .cls-1, .cls-2 {
        fill-rule: evenodd;
      }

      .cls-1, .cls-3 {
        fill: #0a0a0a;
      }

      .cls-2 {
        fill: #42cafd;
      }
    </style>
  </defs>
  <!-- Generator: Adobe Illustrator 28.6.0, SVG Export Plug-In . SVG Version: 1.2.0 Build 709)  -->
  <g>
    <g id="Layer_1">
      <path class="cls-2" d="M18,16.8c2.8,0,5-2.3,5-5.1s-2.3-5.1-5-5.1-5,2.3-5,5.1,2.3,5.1,5,5.1ZM18,14.2c1.3,0,2.4-1.1,2.4-2.4s-1.1-2.4-2.4-2.4-2.4,1.1-2.4,2.4,1.1,2.4,2.4,2.4Z"/>
      <path class="cls-2" d="M36.2,18.6c.3-1.2.4-2.4.4-3.6C36.6,6.7,30,0,21.8,0S7,6.7,7,15s6.6,15,14.8,15,2.9-.2,4.3-.6l2.8,10.6,18.1-18.4-10.8-2.9ZM33.7,18c.2-.9.3-1.9.3-2.9,0-6.8-5.5-12.4-12.2-12.4s-12.2,5.5-12.2,12.4,5.5,12.4,12.2,12.4,2.4-.2,3.6-.5l-3.2-12,11.4,3.1ZM32.8,20.5l-6.8-1.9,1.9,7.2c2.1-1.2,3.9-3.1,4.9-5.3ZM28.5,28.4c3-1.6,5.4-4.1,6.8-7.3l6.6,1.8-11.7,11.9-1.7-6.4Z"/>
      <path class="cls-3" d="M127.5,27v-13.9h-4.5v13.9h4.5Z"/>
      <path class="cls-3" d="M123.4,8.1c-.5.4-.7.9-.7,1.5s.2,1.1.7,1.5c.5.4,1.1.6,1.8.6s1.3-.2,1.8-.6c.5-.4.7-.9.7-1.5s-.2-1.1-.7-1.5c-.5-.4-1.1-.6-1.8-.6s-1.3.2-1.8.6Z"/>
      <path class="cls-1" d="M135.9,32.4v-6.5c.3.3.6.6,1,.8.6.4,1.4.6,2.2.6s1.7-.2,2.4-.5c.7-.4,1.3-.9,1.8-1.5.5-.6.8-1.4,1.1-2.3.2-.9.4-1.8.4-2.8v-.3c0-1.1-.1-2-.4-2.9-.2-.9-.6-1.6-1.1-2.2-.5-.6-1.1-1.1-1.8-1.4-.7-.3-1.5-.5-2.4-.5s-1.6.2-2.2.5c-.4.3-.8.6-1.2,1v-1.3h-4.4v19.2h4.5ZM136.6,23.6c-.3-.2-.5-.4-.6-.7v-5.5c0,0,0-.2.1-.2.2-.3.5-.5.8-.6.3-.1.7-.2,1.2-.2s.8,0,1.1.3c.3.2.5.4.7.8.2.3.3.7.4,1.2,0,.4.1.9.1,1.5v.3c0,.5,0,1-.1,1.5,0,.5-.2.9-.4,1.2-.2.3-.4.6-.7.8-.3.2-.6.3-1.1.3-.6,0-1.2-.1-1.5-.4Z"/>
      <path class="cls-3" d="M155.3,22.5c.2.2.3.4.3.6s0,.5-.2.7c-.1.2-.4.3-.6.4-.3.1-.6.2-1,.2s-.8,0-1.2-.2c-.3-.1-.6-.3-.8-.6-.2-.3-.3-.6-.3-1.1h-4.2c0,.7.2,1.5.7,2.2.5.7,1.2,1.3,2.2,1.8,1,.5,2.1.7,3.5.7s1.8-.1,2.6-.3c.8-.2,1.4-.5,2-.9.6-.4,1-.8,1.3-1.4.3-.5.4-1.1.4-1.7,0-1-.3-1.8-.8-2.3-.5-.6-1.2-1-2.1-1.3-.8-.3-1.8-.6-2.7-.7-.4,0-.8-.2-1.1-.3-.3-.1-.6-.2-.8-.3-.2-.1-.3-.3-.4-.4,0-.2-.1-.3-.1-.5s0-.5.2-.7c.2-.2.4-.4.6-.5.3-.1.5-.2.9-.2.4,0,.8,0,1.1.2.3.1.5.3.6.6.1.2.2.5.2.9h4.5c0-.9-.3-1.7-.8-2.3-.5-.7-1.2-1.2-2.2-1.6-.9-.4-2.1-.6-3.4-.6s-1.8.1-2.5.4c-.7.2-1.4.6-1.9,1-.5.4-.9.9-1.2,1.4-.3.5-.4,1.1-.4,1.7s.1,1.1.4,1.6c.3.5.6.9,1.1,1.2.5.3,1,.6,1.6.9.6.2,1.3.4,2,.6.7.2,1.3.3,1.7.5.4.1.7.3.9.5Z"/>
      <path class="cls-3" d="M184.3,27v-9.7c0,0,0-.1.1-.2.2-.3.5-.5.8-.7.3-.2.7-.3,1.1-.3s.7,0,1,.2c.3.1.5.3.6.6.1.3.2.7.2,1.3v8.7h4.5v-9.3c0-.1,0-.3,0-.4,0,0,0-.1.1-.2.2-.3.5-.5.8-.7.3-.2.7-.3,1.1-.3s.7,0,.9.2c.3.1.5.3.6.6.1.3.2.7.2,1.3v8.7h4.5v-8.7c0-1-.1-1.9-.3-2.5-.2-.7-.5-1.2-.9-1.7-.4-.4-.9-.7-1.4-.9-.6-.2-1.2-.3-1.8-.3s-1.7.2-2.4.5c-.7.3-1.3.8-1.7,1.4,0,0,0,.1-.1.2-.2-.4-.4-.7-.6-.9-.4-.4-.8-.7-1.3-.9-.5-.2-1.1-.3-1.7-.3-.9,0-1.7.2-2.4.5-.7.3-1.2.8-1.7,1.4l-.2-1.6h-4.2v13.9h4.5Z"/>
      <path class="cls-3" d="M170.1,26.8c.6-.3,1.2-.7,1.6-1.3v1.5h4.4v-13.9h-4.5v9.7c-.2.3-.4.5-.6.7-.4.3-.9.4-1.6.4s-.6,0-.8-.1c-.2,0-.4-.2-.6-.3-.2-.2-.3-.3-.3-.6,0-.2-.1-.5-.1-.8v-9h-4.5v9c0,.9.1,1.7.3,2.4.2.6.6,1.2,1,1.6.4.4.9.7,1.5.9.6.2,1.3.3,2,.3s1.6-.2,2.3-.5Z"/>
      <path class="cls-1" d="M105.6,20.2v-.3c0-1,.2-2,.5-2.8.3-.9.8-1.6,1.3-2.2.6-.6,1.3-1.1,2.2-1.5.9-.4,1.9-.5,3-.5s2.1.2,3,.5c.9.4,1.6.8,2.2,1.5.6.6,1,1.4,1.3,2.2.3.9.5,1.8.5,2.8v.3c0,1-.2,1.9-.5,2.8-.3.9-.8,1.6-1.3,2.2-.6.6-1.3,1.1-2.2,1.5-.9.4-1.9.5-3,.5s-2.1-.2-3-.5c-.9-.4-1.6-.8-2.2-1.5-.6-.6-1-1.4-1.3-2.2-.3-.9-.5-1.8-.5-2.8ZM110.2,20v.3c0,.5,0,1,.1,1.5,0,.5.2.9.4,1.2.2.3.4.6.8.8.3.2.7.3,1.2.3s.9,0,1.2-.3c.3-.2.6-.4.8-.8.2-.3.3-.7.4-1.2,0-.5.1-.9.1-1.5v-.3c0-.5,0-1-.1-1.4,0-.5-.2-.8-.4-1.2-.2-.4-.4-.6-.8-.8-.3-.2-.7-.3-1.2-.3s-.9,0-1.2.3c-.3.2-.6.5-.8.8-.2.3-.3.7-.4,1.2,0,.4-.1.9-.1,1.4Z"/>
      <path class="cls-1" d="M102.5,13.2h-4.1l-.2,1.2c-.3-.4-.7-.7-1.1-.9-.6-.4-1.4-.6-2.4-.6s-1.7.2-2.5.5c-.7.3-1.4.8-1.9,1.5-.5.6-.9,1.4-1.2,2.2-.3.9-.4,1.8-.4,2.9v.3c0,1,.1,1.9.4,2.8.3.9.7,1.6,1.2,2.2.5.6,1.1,1.1,1.9,1.5.7.4,1.6.5,2.5.5s1.6-.2,2.3-.5c.4-.2.7-.5,1-.8v.5c0,.6-.1,1.1-.3,1.5-.2.4-.6.8-1,1-.4.2-1,.3-1.6.3s-1.4-.1-2-.4c-.6-.3-1-.6-1.4-1l-1.9,2.5c.4.5.9.8,1.5,1.1.6.3,1.2.5,1.9.7.7.2,1.3.2,2,.2,1.5,0,2.8-.2,3.9-.7,1.1-.5,2-1.1,2.6-2,.6-.9.9-2,.9-3.3v-13.3ZM98,17.2s0,0,0,0c-.2-.3-.5-.5-.8-.7-.3-.2-.8-.2-1.2-.2s-.8,0-1.1.3c-.3.2-.6.5-.8.8-.2.3-.4.7-.5,1.2-.1.5-.2.9-.2,1.5v.3c0,.5,0,1,.1,1.4.1.4.3.8.5,1.2.2.3.5.6.8.8.3.2.7.3,1.1.3.7,0,1.2-.1,1.6-.4.2-.1.4-.3.6-.5v-5.8Z"/>
      <path class="cls-1" d="M72.2,20.2v-.3c0-1,.2-2,.5-2.8.3-.9.8-1.6,1.3-2.2.6-.6,1.3-1.1,2.2-1.5.9-.4,1.9-.5,3-.5s2.1.2,3,.5c.9.4,1.6.8,2.2,1.5.6.6,1,1.4,1.3,2.2.3.9.5,1.8.5,2.8v.3c0,1-.2,1.9-.5,2.8-.3.9-.8,1.6-1.3,2.2-.6.6-1.3,1.1-2.2,1.5-.9.4-1.9.5-3,.5s-2.1-.2-3-.5c-.9-.4-1.6-.8-2.2-1.5-.6-.6-1-1.4-1.3-2.2-.3-.9-.5-1.8-.5-2.8ZM76.7,20v.3c0,.5,0,1,.1,1.5,0,.5.2.9.4,1.2.2.3.4.6.8.8.3.2.7.3,1.2.3s.9,0,1.2-.3c.3-.2.6-.4.8-.8.2-.3.3-.7.4-1.2,0-.5.1-.9.1-1.5v-.3c0-.5,0-1-.1-1.4,0-.5-.2-.8-.4-1.2-.2-.4-.4-.6-.8-.8-.3-.2-.7-.3-1.2-.3s-.9,0-1.2.3c-.3.2-.6.5-.8.8-.2.3-.3.7-.4,1.2,0,.4-.1.9-.1,1.4Z"/>
      <path class="cls-3" d="M69.9,27v-3.5h-8.2v-15.2h-4.7v18.7h12.9Z"/>
    </g>
  </g>
</svg>