<svg width="28" height="27" viewBox="0 0 28 27" fill="none" xmlns="http://www.w3.org/2000/svg">
<path fill-rule="evenodd" clip-rule="evenodd" d="M8.64632 16.444C10.1074 18.101 12.5004 18.6049 13.2914 17.814C14.6193 16.6432 15.0007 13.7499 13.4549 12.204C11.9091 10.6582 9.32831 10.6427 8.00046 11.8135C7.23331 12.49 7.18527 14.787 8.64632 16.444ZM11.7347 16.1143C11.8828 16.1537 12.0012 16.171 12.0873 16.1774C12.2428 15.9594 12.4204 15.5595 12.4549 15.0217C12.4968 14.3675 12.3031 13.8807 12.0407 13.6182C11.6618 13.2394 11.1198 13.0165 10.545 12.9875C10.0796 12.964 9.71592 13.0711 9.48615 13.2004C9.47327 13.2917 9.46606 13.4228 9.48041 13.5891C9.52173 14.0679 9.72399 14.6422 10.1464 15.1213C10.5987 15.6342 11.2106 15.9748 11.7347 16.1143ZM9.51696 13.067C9.51712 13.0672 9.51571 13.0715 9.51222 13.0792C9.51505 13.0706 9.51679 13.0668 9.51696 13.067Z" fill="white"/>
<path fill-rule="evenodd" clip-rule="evenodd" d="M25.6576 1.63254C30.9043 6.87925 21.5239 24.7655 20.0007 26.2894C18.4775 27.8134 11.9043 25.8793 6.65755 20.6326C1.41085 15.3859 -0.999568 9.28959 1.0007 7.2894C3.00097 5.28921 20.4108 -3.61418 25.6576 1.63254ZM23.5362 3.75386C23.9138 4.13148 24.3551 5.1161 24.2082 7.28132C24.069 9.33304 23.437 11.8175 22.5393 14.3573C21.6517 16.8685 20.5572 19.2872 19.5954 21.163C19.115 22.1 18.6793 22.879 18.3325 23.4498C18.2521 23.582 18.182 23.6939 18.1219 23.7875C17.6089 23.7524 16.8139 23.5855 15.7939 23.1967C13.705 22.4005 11.1075 20.8399 8.77888 18.5112C6.37812 16.1105 4.71262 13.5942 3.88238 11.5936C3.46357 10.5844 3.31449 9.84383 3.30168 9.39472C3.30035 9.34816 3.30044 9.30813 3.30138 9.27408C3.44129 9.17207 3.67005 9.0134 4.01209 8.79909C4.60634 8.42677 5.39766 7.9756 6.33961 7.48751C8.22553 6.51027 10.6197 5.43441 13.093 4.57837C15.5936 3.71283 18.026 3.1245 20.0326 3.01743C22.1353 2.90523 23.1296 3.34719 23.5362 3.75386ZM18.5239 23.7807C18.5249 23.7817 18.5099 23.7856 18.4758 23.7891C18.5058 23.7813 18.5229 23.7796 18.5239 23.7807ZM3.31827 9.11286C3.31851 9.1131 3.3175 9.11825 3.31448 9.1276C3.31652 9.11731 3.31803 9.11263 3.31827 9.11286Z" fill="white"/>
</svg>
