<svg width="152" height="27" viewBox="0 0 152 27" fill="none" xmlns="http://www.w3.org/2000/svg">
<path d="M148.534 20V13.94C148.534 12.48 147.694 11.68 146.394 11.68C145.094 11.68 144.254 12.48 144.254 13.94V20H140.854V13.94C140.854 12.48 140.014 11.68 138.714 11.68C137.414 11.68 136.574 12.48 136.574 13.94V20H133.154V8.84H136.574V10.24C137.234 9.34 138.374 8.72 139.834 8.72C141.514 8.72 142.874 9.46 143.634 10.8C144.374 9.62 145.774 8.72 147.394 8.72C150.154 8.72 151.934 10.48 151.934 13.48V20H148.534Z" fill="white"/>
<path d="M130.698 8.84V20H127.278V18.48C126.598 19.44 125.398 20.12 123.898 20.12C121.318 20.12 119.578 18.34 119.578 15.36V8.84H122.978V14.9C122.978 16.42 123.838 17.26 125.118 17.26C126.438 17.26 127.278 16.42 127.278 14.9V8.84H130.698Z" fill="white"/>
<path d="M117.585 16.76C117.585 18.7 115.865 20.16 113.065 20.16C110.085 20.16 108.085 18.5 107.925 16.34H111.305C111.385 17.12 112.085 17.64 113.025 17.64C113.905 17.64 114.365 17.24 114.365 16.74C114.365 14.94 108.285 16.24 108.285 12.14C108.285 10.24 109.905 8.67999 112.825 8.67999C115.705 8.67999 117.305 10.28 117.525 12.48H114.365C114.265 11.72 113.685 11.22 112.725 11.22C111.925 11.22 111.485 11.54 111.485 12.08C111.485 13.86 117.525 12.6 117.585 16.76Z" fill="white"/>
<path d="M98.3709 10.42C98.9909 9.43999 100.171 8.67999 101.811 8.67999C104.551 8.67999 106.731 10.88 106.731 14.4C106.731 17.92 104.551 20.16 101.811 20.16C100.171 20.16 98.9909 19.38 98.3709 18.44V25.32H94.9509V8.83999H98.3709V10.42ZM103.251 14.4C103.251 12.62 102.091 11.66 100.791 11.66C99.5109 11.66 98.3509 12.64 98.3509 14.42C98.3509 16.2 99.5109 17.18 100.791 17.18C102.091 17.18 103.251 16.18 103.251 14.4Z" fill="white"/>
<path d="M89.0525 20V8.84001H92.4725V20H89.0525ZM90.7725 7.68001C89.5525 7.68001 88.7325 6.86001 88.7325 5.84001C88.7325 4.80001 89.5525 3.98001 90.7725 3.98001C91.9725 3.98001 92.7925 4.80001 92.7925 5.84001C92.7925 6.86001 91.9725 7.68001 90.7725 7.68001Z" fill="white"/>
<path d="M82.9998 14.42C82.9998 17.96 80.4398 20.16 77.1598 20.16C73.8798 20.16 71.3998 17.96 71.3998 14.42C71.3998 10.88 73.9398 8.67999 77.1998 8.67999C80.4798 8.67999 82.9998 10.88 82.9998 14.42ZM74.8798 14.42C74.8798 16.3 75.9198 17.2 77.1598 17.2C78.3798 17.2 79.5198 16.3 79.5198 14.42C79.5198 12.52 78.3998 11.64 77.1998 11.64C75.9598 11.64 74.8798 12.52 74.8798 14.42Z" fill="white"/>
<path d="M57.8256 14.4C57.8256 10.88 60.0056 8.67999 62.7456 8.67999C64.3856 8.67999 65.5856 9.41999 66.1856 10.42V8.83999H69.6056V19.98C69.6056 22.96 67.8856 25.5 64.0256 25.5C60.7056 25.5 58.5456 23.82 58.2456 21.16H61.6256C61.8456 22 62.6856 22.54 63.8656 22.54C65.1656 22.54 66.1856 21.86 66.1856 19.98V18.4C65.5656 19.38 64.3856 20.16 62.7456 20.16C60.0056 20.16 57.8256 17.92 57.8256 14.4ZM66.1856 14.42C66.1856 12.64 65.0456 11.66 63.7456 11.66C62.4656 11.66 61.3056 12.62 61.3056 14.4C61.3056 16.18 62.4656 17.18 63.7456 17.18C65.0456 17.18 66.1856 16.2 66.1856 14.42Z" fill="white"/>
<path d="M56.6912 14.42C56.6912 17.96 54.1312 20.16 50.8512 20.16C47.5712 20.16 45.0912 17.96 45.0912 14.42C45.0912 10.88 47.6312 8.67999 50.8912 8.67999C54.1712 8.67999 56.6912 10.88 56.6912 14.42ZM48.5712 14.42C48.5712 16.3 49.6112 17.2 50.8512 17.2C52.0712 17.2 53.2112 16.3 53.2112 14.42C53.2112 12.52 52.0912 11.64 50.8912 11.64C49.6512 11.64 48.5712 12.52 48.5712 14.42Z" fill="white"/>
<path d="M36.24 5.95999H39.66V17.36H44.14V20H36.24V5.95999Z" fill="white"/>
<path fill-rule="evenodd" clip-rule="evenodd" d="M8.64632 16.6305C10.1074 18.2875 12.5004 18.7914 13.2914 18.0006C14.6193 16.8297 15.0007 13.9364 13.4549 12.3906C11.9091 10.8447 9.32831 10.8292 8.00046 12.0001C7.23331 12.6765 7.18527 14.9735 8.64632 16.6305ZM11.7347 16.3008C11.8828 16.3403 12.0012 16.3575 12.0873 16.3639C12.2428 16.1459 12.4204 15.746 12.4549 15.2083C12.4968 14.554 12.3031 14.0672 12.0407 13.8048C11.6618 13.4259 11.1198 13.2031 10.545 13.174C10.0796 13.1505 9.71592 13.2576 9.48615 13.3869C9.47327 13.4782 9.46606 13.6094 9.48041 13.7756C9.52173 14.2545 9.72399 14.8287 10.1464 15.3078C10.5987 15.8207 11.2106 16.1613 11.7347 16.3008ZM9.51696 13.2535C9.51696 13.2535 9.51571 13.258 9.51222 13.2657C9.51505 13.2572 9.51696 13.2535 9.51696 13.2535Z" fill="white"/>
<path fill-rule="evenodd" clip-rule="evenodd" d="M25.6576 1.81906C30.9043 7.06577 21.5239 24.952 20.0007 26.476C18.4775 27.9999 11.9043 26.0658 6.65755 20.8191C1.41085 15.5724 -0.999568 9.47611 1.0007 7.47592C3.00097 5.47573 20.4108 -3.42765 25.6576 1.81906ZM23.5362 3.94038C23.9138 4.318 24.3551 5.30262 24.2082 7.46784C24.069 9.51956 23.437 12.004 22.5393 14.5438C21.6517 17.055 20.5572 19.4737 19.5954 21.3495C19.115 22.2865 18.6793 23.0656 18.3325 23.6363C18.2521 23.7685 18.182 23.8804 18.1219 23.974C17.6089 23.9389 16.8139 23.772 15.7939 23.3832C13.705 22.5871 11.1075 21.0264 8.77888 18.6978C6.37812 16.297 4.71262 13.7808 3.88238 11.7802C3.46357 10.771 3.31449 10.0304 3.30168 9.58125C3.30035 9.53468 3.30044 9.49465 3.30138 9.4606C3.44129 9.35859 3.67005 9.19992 4.01209 8.98562C4.60634 8.61329 5.39766 8.16213 6.33961 7.67403C8.22553 6.69679 10.6197 5.62094 13.093 4.76489C15.5936 3.89935 18.026 3.31102 20.0326 3.20395C22.1353 3.09176 23.1296 3.53371 23.5362 3.94038ZM18.5239 23.9672C18.5239 23.9672 18.5099 23.9721 18.4758 23.9756C18.5058 23.9678 18.5239 23.9672 18.5239 23.9672ZM3.31827 9.29939C3.31827 9.29939 3.3175 9.30477 3.31448 9.31412C3.31652 9.30383 3.31827 9.29939 3.31827 9.29939Z" fill="white"/>
</svg>
